<svg width="96" height="96" viewBox="0 0 96 96" fill="none" xmlns="http://www.w3.org/2000/svg">
<path fill-rule="evenodd" clip-rule="evenodd" d="M95.8328 0.513916H22.5408L0.382812 20.9675V95.9639H95.8328V0.513916Z" fill="#FE0101" fill-opacity="0.8"/>
<path d="M1.55798 21.482L23.0003 1.68908H94.6576V94.7887H1.55798V21.482Z" stroke="white" stroke-opacity="0.8" stroke-width="2.35033"/>
<path fill-rule="evenodd" clip-rule="evenodd" d="M95.8328 0.513916H22.5408L0.382812 20.9675V95.9639H95.8328V0.513916Z" fill="#FF0000" fill-opacity="0.8"/>
<path d="M1.55798 21.482L23.0003 1.68908H94.6576V94.7887H1.55798V21.482Z" stroke="white" stroke-opacity="0.8" stroke-width="2.35033"/>
<path d="M72.4567 87.2769L87.332 72.78L87.1428 87.4661L72.4567 87.2769Z" fill="#FF0000" fill-opacity="0.8" stroke="white" stroke-opacity="0.9" stroke-width="2.35033"/>
<path d="M33.5883 26.6194H33.2837L33.0683 26.8347L30.794 29.1091V23.3838C30.794 22.3472 31.6127 21.6189 32.5588 21.6189H66.9736C67.8912 21.6189 68.5914 22.3192 68.5914 23.2367V65.2993C68.5914 66.3358 67.7727 67.0641 66.8266 67.0641H63.7381V29.8549C63.7381 27.9501 62.2037 26.6194 60.5025 26.6194H33.5883Z" stroke="white" stroke-width="1.47072"/>
<path d="M30.2083 30.7373L24.0312 36.9144H30.2083H33.738V27.0605L30.2083 30.7373Z" stroke="white" stroke-width="1.47072" stroke-linecap="round" stroke-linejoin="round"/>
<path d="M60.6567 27.2075H33.7425V37.0613H23.8887V71.4762C23.8887 72.7998 24.9182 73.9764 26.3889 73.9764H60.6567C61.9803 73.9764 63.1569 72.9469 63.1569 71.4762V29.5607C63.1569 28.237 61.9803 27.2075 60.6567 27.2075Z" fill="white" stroke="white" stroke-width="1.47072" stroke-linecap="round" stroke-linejoin="round"/>
<mask id="path-9-inside-1_2403_793" fill="white">
<path d="M31.0938 52.6513L35.0647 41.915H36.3883L40.3593 52.6513H39.0356L36.6825 45.7389C36.6825 45.5918 36.5354 45.2977 36.3883 45.0036C36.2413 44.7094 36.2413 44.4153 36.0942 44.1211C35.9471 43.827 35.9471 43.5328 35.8001 43.2387C35.653 42.9445 35.653 42.7975 35.5059 42.5033H35.8001C35.653 42.7975 35.653 43.0916 35.5059 43.2387C35.3588 43.5328 35.3588 43.827 35.2118 43.974C35.0647 44.2682 35.0647 44.4153 34.9176 44.7094C34.7705 45.0035 34.7705 45.1506 34.6235 45.4448L32.2703 52.6513H31.0938ZM32.8586 49.7098L33.2998 48.5333H38.1532L38.5944 49.7098H32.8586Z"/>
</mask>
<path d="M31.0938 52.6513L35.0647 41.915H36.3883L40.3593 52.6513H39.0356L36.6825 45.7389C36.6825 45.5918 36.5354 45.2977 36.3883 45.0036C36.2413 44.7094 36.2413 44.4153 36.0942 44.1211C35.9471 43.827 35.9471 43.5328 35.8001 43.2387C35.653 42.9445 35.653 42.7975 35.5059 42.5033H35.8001C35.653 42.7975 35.653 43.0916 35.5059 43.2387C35.3588 43.5328 35.3588 43.827 35.2118 43.974C35.0647 44.2682 35.0647 44.4153 34.9176 44.7094C34.7705 45.0035 34.7705 45.1506 34.6235 45.4448L32.2703 52.6513H31.0938ZM32.8586 49.7098L33.2998 48.5333H38.1532L38.5944 49.7098H32.8586Z" fill="#FF0000"/>
<path d="M31.0938 52.6513L29.7144 52.1411L28.9817 54.122H31.0938V52.6513ZM35.0647 41.915V40.4443H34.0406L33.6853 41.4049L35.0647 41.915ZM36.3883 41.915L37.7677 41.4049L37.4125 40.4443H36.3883V41.915ZM40.3593 52.6513V54.122H42.4713L41.7387 52.1411L40.3593 52.6513ZM39.0356 52.6513L37.6434 53.1252L37.9827 54.122H39.0356V52.6513ZM36.6825 45.7389H35.2118V45.9824L35.2902 46.2129L36.6825 45.7389ZM35.5059 42.5033V41.0326H33.1262L34.1905 43.1611L35.5059 42.5033ZM35.8001 42.5033L37.1155 43.1611L38.1797 41.0326H35.8001V42.5033ZM35.5059 43.2387L34.466 42.1987L34.2972 42.3675L34.1905 42.581L35.5059 43.2387ZM35.2118 43.974L34.1718 42.9341L34.003 43.1029L33.8963 43.3163L35.2118 43.974ZM34.6235 45.4448L33.308 44.787L33.2592 44.8846L33.2254 44.9882L34.6235 45.4448ZM32.2703 52.6513V54.122H33.3372L33.6684 53.1078L32.2703 52.6513ZM32.8586 49.7098L31.4815 49.1934L30.7364 51.1806H32.8586V49.7098ZM33.2998 48.5333V47.0626H32.2806L31.9228 48.0169L33.2998 48.5333ZM38.1532 48.5333L39.5303 48.0169L39.1724 47.0626H38.1532V48.5333ZM38.5944 49.7098V51.1806H40.7167L39.9715 49.1934L38.5944 49.7098ZM32.4731 53.1615L36.4441 42.4252L33.6853 41.4049L29.7144 52.1411L32.4731 53.1615ZM35.0647 43.3858H36.3883V40.4443H35.0647V43.3858ZM35.0089 42.4252L38.9799 53.1615L41.7387 52.1411L37.7677 41.4049L35.0089 42.4252ZM40.3593 51.1806H39.0356V54.122H40.3593V51.1806ZM40.4279 52.1773L38.0747 45.265L35.2902 46.2129L37.6434 53.1252L40.4279 52.1773ZM38.1532 45.7389C38.1532 45.4885 38.0964 45.2809 38.0642 45.1751C38.0265 45.0511 37.981 44.9371 37.9424 44.847C37.8667 44.6706 37.7718 44.4819 37.7038 44.3458L35.0729 45.6613C35.1105 45.7365 35.1429 45.8013 35.1725 45.8625C35.2021 45.9236 35.2236 45.9703 35.2388 46.0057C35.2461 46.0229 35.2505 46.034 35.2528 46.04C35.2552 46.0463 35.2537 46.043 35.2502 46.0315C35.247 46.0211 35.2389 45.9931 35.231 45.9515C35.2235 45.9124 35.2118 45.8377 35.2118 45.7389H38.1532ZM37.7038 44.3458C37.713 44.3642 37.7092 44.37 37.6681 44.2056C37.6356 44.0759 37.5659 43.7759 37.4096 43.4634L34.7787 44.7788C34.7696 44.7605 34.7734 44.7546 34.8145 44.919C34.8469 45.0488 34.9166 45.3488 35.0729 45.6613L37.7038 44.3458ZM37.4096 43.4634C37.4188 43.4818 37.415 43.4876 37.3739 43.3232C37.3415 43.1935 37.2718 42.8935 37.1155 42.581L34.4846 43.8964C34.4754 43.8781 34.4792 43.8722 34.5203 44.0366C34.5527 44.1663 34.6225 44.4663 34.7787 44.7788L37.4096 43.4634ZM37.1155 42.581C37.0915 42.533 37.0817 42.5064 37.0482 42.4059C37.0082 42.2857 36.9444 42.0917 36.8214 41.8456L34.1905 43.1611C34.2145 43.2091 34.2243 43.2357 34.2577 43.3361C34.2978 43.4563 34.3615 43.6503 34.4846 43.8964L37.1155 42.581ZM35.5059 43.974H35.8001V41.0326H35.5059V43.974ZM34.4846 41.8456C34.4043 42.0062 34.3505 42.154 34.313 42.2701C34.2944 42.3279 34.279 42.3806 34.267 42.4224C34.2611 42.4433 34.2554 42.4633 34.2509 42.4795C34.246 42.4968 34.2424 42.5099 34.2388 42.5221C34.2219 42.5815 34.2256 42.5601 34.2445 42.5167C34.2661 42.467 34.3292 42.3355 34.466 42.1987L36.5459 44.2786C36.7562 44.0683 36.8744 43.8449 36.942 43.6895C37.0068 43.5404 37.0473 43.3995 37.0671 43.3302C37.1209 43.142 37.1181 43.156 37.1155 43.1611L34.4846 41.8456ZM34.1905 42.581C34.1101 42.7416 34.0563 42.8894 34.0189 43.0055C34.0002 43.0633 33.9848 43.1159 33.9729 43.1578C33.9669 43.1786 33.9613 43.1986 33.9567 43.2149C33.9519 43.2322 33.9482 43.2452 33.9447 43.2575C33.9277 43.3168 33.9315 43.2954 33.9503 43.252C33.9719 43.2024 34.035 43.0709 34.1718 42.9341L36.2517 45.014C36.4621 44.8037 36.5803 44.5802 36.6478 44.4249C36.7127 44.2758 36.7532 44.1349 36.773 44.0656C36.8267 43.8774 36.8239 43.8913 36.8214 43.8964L34.1905 42.581ZM33.8963 43.3163C33.7732 43.5625 33.7095 43.7565 33.6694 43.8766C33.636 43.9771 33.6262 44.0037 33.6022 44.0517L36.2331 45.3671C36.3561 45.121 36.4199 44.927 36.4599 44.8068C36.4934 44.7064 36.5032 44.6798 36.5272 44.6318L33.8963 43.3163ZM33.6022 44.0517C33.4791 44.2978 33.4154 44.4918 33.3753 44.612C33.3418 44.7124 33.332 44.739 33.308 44.787L35.9389 46.1025C36.062 45.8564 36.1257 45.6623 36.1658 45.5422C36.1993 45.4417 36.2091 45.4151 36.2331 45.3671L33.6022 44.0517ZM33.2254 44.9882L30.8723 52.1948L33.6684 53.1078L36.0215 45.9013L33.2254 44.9882ZM32.2703 51.1806H31.0938V54.122H32.2703V51.1806ZM34.2357 50.2263L34.6769 49.0497L31.9228 48.0169L31.4815 49.1934L34.2357 50.2263ZM33.2998 50.004H38.1532V47.0626H33.2998V50.004ZM36.7761 49.0497L37.2173 50.2263L39.9715 49.1934L39.5303 48.0169L36.7761 49.0497ZM38.5944 48.2391H32.8586V51.1806H38.5944V48.2391Z" fill="#FF0000" mask="url(#path-9-inside-1_2403_793)"/>
<mask id="path-11-inside-2_2403_793" fill="white">
<path d="M43.4532 52.6513V43.0916H40.5117V41.915H47.7182V43.0916H44.6297V52.6513H43.4532Z"/>
</mask>
<path d="M43.4532 52.6513V43.0916H40.5117V41.915H47.7182V43.0916H44.6297V52.6513H43.4532Z" fill="#FF0000"/>
<path d="M43.4532 52.6513H41.9824V54.122H43.4532V52.6513ZM43.4532 43.0916H44.9239V41.6209H43.4532V43.0916ZM40.5117 43.0916H39.041V44.5623H40.5117V43.0916ZM40.5117 41.915V40.4443H39.041V41.915H40.5117ZM47.7182 41.915H49.189V40.4443H47.7182V41.915ZM47.7182 43.0916V44.5623H49.189V43.0916H47.7182ZM44.6297 43.0916V41.6209H43.159V43.0916H44.6297ZM44.6297 52.6513V54.122H46.1005V52.6513H44.6297ZM44.9239 52.6513V43.0916H41.9824V52.6513H44.9239ZM43.4532 41.6209H40.5117V44.5623H43.4532V41.6209ZM41.9824 43.0916V41.915H39.041V43.0916H41.9824ZM40.5117 43.3858H47.7182V40.4443H40.5117V43.3858ZM46.2475 41.915V43.0916H49.189V41.915H46.2475ZM47.7182 41.6209H44.6297V44.5623H47.7182V41.6209ZM43.159 43.0916V52.6513H46.1005V43.0916H43.159ZM44.6297 51.1806H43.4532V54.122H44.6297V51.1806Z" fill="#FF0000" mask="url(#path-11-inside-2_2403_793)"/>
<mask id="path-13-inside-3_2403_793" fill="white">
<path d="M52.8571 52.7984C52.2688 52.7984 51.8276 52.6513 51.3864 52.5042C50.9451 52.3571 50.5039 52.063 50.0627 51.7689C49.6215 51.4747 49.3273 51.0335 49.0332 50.5923L49.7686 49.7098C50.2098 50.4452 50.651 50.8864 51.2393 51.1806C51.6805 51.4747 52.2688 51.6218 52.8571 51.6218C53.2983 51.6218 53.7395 51.4747 54.0336 51.3276C54.3278 51.1806 54.6219 50.8864 54.9161 50.7394C55.0632 50.4452 55.2102 50.1511 55.2102 49.8569C55.2102 49.5628 55.2102 49.4157 55.0631 49.2686C55.0631 49.1216 54.9161 48.9745 54.769 48.8274C54.6219 48.6803 54.4749 48.5333 54.1807 48.3862C53.8866 48.2391 53.7395 48.2391 53.4454 48.0921C53.1512 47.945 52.8571 47.945 52.5629 47.7979C52.1217 47.6508 51.5334 47.5038 51.2393 47.3567C50.7981 47.2096 50.5039 46.9155 50.2098 46.7684C49.9156 46.4743 49.7686 46.1801 49.6215 45.886C49.4744 45.5918 49.4744 45.1506 49.4744 44.7094C49.4744 44.2682 49.6215 43.827 49.7686 43.5328C49.9156 43.2387 50.2098 42.7975 50.5039 42.6504C50.7981 42.3563 51.2393 42.2092 51.5334 42.0621C51.9746 41.915 52.4159 41.915 52.8571 41.915C53.4454 41.915 53.8866 42.0621 54.3278 42.2092C54.769 42.3563 55.0632 42.5033 55.5044 42.7975C55.7985 43.0916 56.0927 43.3858 56.3868 43.827L55.5044 44.7094C55.3573 44.4153 55.0632 44.1211 54.769 43.827C54.4749 43.5328 54.1807 43.3858 53.8866 43.2387C53.5924 42.9445 53.2983 42.9445 52.8571 42.9445C52.4159 42.9445 51.9746 43.0916 51.6805 43.2387C51.3863 43.3858 51.0922 43.6799 50.9451 43.827C50.7981 44.1211 50.651 44.4153 50.651 44.7094C50.651 45.0035 50.651 45.1506 50.7981 45.4448C50.9451 45.5918 51.0922 45.886 51.2393 46.0331C51.3864 46.1801 51.6805 46.3272 51.9746 46.4743C52.2688 46.6213 52.71 46.6213 53.1512 46.7684C53.7395 46.9155 54.1807 47.0626 54.4749 47.2096C54.9161 47.3567 55.2102 47.6508 55.5044 47.7979C55.7985 48.0921 56.0927 48.2391 56.2397 48.6803C56.3868 48.9745 56.5339 49.4157 56.5339 49.7098C56.5339 50.2981 56.3868 50.8864 56.0926 51.3276C55.7985 51.7689 55.3573 52.2101 54.769 52.5042C54.1807 52.6513 53.5924 52.7984 52.8571 52.7984Z"/>
</mask>
<path d="M52.8571 52.7984C52.2688 52.7984 51.8276 52.6513 51.3864 52.5042C50.9451 52.3571 50.5039 52.063 50.0627 51.7689C49.6215 51.4747 49.3273 51.0335 49.0332 50.5923L49.7686 49.7098C50.2098 50.4452 50.651 50.8864 51.2393 51.1806C51.6805 51.4747 52.2688 51.6218 52.8571 51.6218C53.2983 51.6218 53.7395 51.4747 54.0336 51.3276C54.3278 51.1806 54.6219 50.8864 54.9161 50.7394C55.0632 50.4452 55.2102 50.1511 55.2102 49.8569C55.2102 49.5628 55.2102 49.4157 55.0631 49.2686C55.0631 49.1216 54.9161 48.9745 54.769 48.8274C54.6219 48.6803 54.4749 48.5333 54.1807 48.3862C53.8866 48.2391 53.7395 48.2391 53.4454 48.0921C53.1512 47.945 52.8571 47.945 52.5629 47.7979C52.1217 47.6508 51.5334 47.5038 51.2393 47.3567C50.7981 47.2096 50.5039 46.9155 50.2098 46.7684C49.9156 46.4743 49.7686 46.1801 49.6215 45.886C49.4744 45.5918 49.4744 45.1506 49.4744 44.7094C49.4744 44.2682 49.6215 43.827 49.7686 43.5328C49.9156 43.2387 50.2098 42.7975 50.5039 42.6504C50.7981 42.3563 51.2393 42.2092 51.5334 42.0621C51.9746 41.915 52.4159 41.915 52.8571 41.915C53.4454 41.915 53.8866 42.0621 54.3278 42.2092C54.769 42.3563 55.0632 42.5033 55.5044 42.7975C55.7985 43.0916 56.0927 43.3858 56.3868 43.827L55.5044 44.7094C55.3573 44.4153 55.0632 44.1211 54.769 43.827C54.4749 43.5328 54.1807 43.3858 53.8866 43.2387C53.5924 42.9445 53.2983 42.9445 52.8571 42.9445C52.4159 42.9445 51.9746 43.0916 51.6805 43.2387C51.3863 43.3858 51.0922 43.6799 50.9451 43.827C50.7981 44.1211 50.651 44.4153 50.651 44.7094C50.651 45.0035 50.651 45.1506 50.7981 45.4448C50.9451 45.5918 51.0922 45.886 51.2393 46.0331C51.3864 46.1801 51.6805 46.3272 51.9746 46.4743C52.2688 46.6213 52.71 46.6213 53.1512 46.7684C53.7395 46.9155 54.1807 47.0626 54.4749 47.2096C54.9161 47.3567 55.2102 47.6508 55.5044 47.7979C55.7985 48.0921 56.0927 48.2391 56.2397 48.6803C56.3868 48.9745 56.5339 49.4157 56.5339 49.7098C56.5339 50.2981 56.3868 50.8864 56.0926 51.3276C55.7985 51.7689 55.3573 52.2101 54.769 52.5042C54.1807 52.6513 53.5924 52.7984 52.8571 52.7984Z" fill="#FF0000"/>
<path d="M49.0332 50.5923L47.9034 49.6507L47.2003 50.4944L47.8095 51.4081L49.0332 50.5923ZM49.7686 49.7098L51.0297 48.9532L49.9643 47.1776L48.6387 48.7683L49.7686 49.7098ZM51.2393 51.1806L52.0551 49.9569L51.9789 49.9061L51.897 49.8651L51.2393 51.1806ZM54.9161 50.7394L55.5738 52.0548L56.0123 51.8356L56.2315 51.3971L54.9161 50.7394ZM55.0631 49.2686H53.5924V49.8778L54.0232 50.3086L55.0631 49.2686ZM52.5629 47.7979L53.2207 46.4825L53.1272 46.4357L53.028 46.4027L52.5629 47.7979ZM51.2393 47.3567L51.897 46.0412L51.8035 45.9945L51.7044 45.9615L51.2393 47.3567ZM50.2098 46.7684L49.1698 47.8084L49.3386 47.9771L49.552 48.0839L50.2098 46.7684ZM50.5039 42.6504L51.1616 43.9658L51.3751 43.8591L51.5439 43.6904L50.5039 42.6504ZM51.5334 42.0621L51.0683 40.6669L50.9692 40.6999L50.8757 40.7467L51.5334 42.0621ZM55.5044 42.7975L56.5443 41.7575L56.4413 41.6545L56.3202 41.5738L55.5044 42.7975ZM56.3868 43.827L57.4268 44.8669L58.2793 44.0144L57.6105 43.0112L56.3868 43.827ZM55.5044 44.7094L54.1889 45.3671L55.1015 47.1922L56.5443 45.7494L55.5044 44.7094ZM53.8866 43.2387L52.8466 44.2786L53.0154 44.4474L53.2288 44.5541L53.8866 43.2387ZM50.9451 43.827L49.9052 42.787L49.7364 42.9558L49.6297 43.1692L50.9451 43.827ZM50.7981 45.4448L49.4826 46.1025L49.5893 46.316L49.7581 46.4847L50.7981 45.4448ZM53.1512 46.7684L52.6861 48.1637L52.7397 48.1815L52.7945 48.1952L53.1512 46.7684ZM54.4749 47.2096L53.8171 48.5251L53.9106 48.5718L54.0098 48.6049L54.4749 47.2096ZM55.5044 47.7979L56.5443 46.758L56.3756 46.5892L56.1621 46.4825L55.5044 47.7979ZM56.2397 48.6803L54.8445 49.1454L54.8775 49.2446L54.9243 49.3381L56.2397 48.6803ZM54.769 52.5042L55.1257 53.931L55.2823 53.8919L55.4267 53.8197L54.769 52.5042ZM52.8571 51.3276C52.5311 51.3276 52.2921 51.2558 51.8514 51.109L50.9213 53.8995C51.3631 54.0467 52.0064 54.2691 52.8571 54.2691V51.3276ZM51.8514 51.109C51.634 51.0365 51.3643 50.869 50.8785 50.5451L49.2469 52.9926C49.6436 53.257 50.2563 53.6778 50.9213 53.8995L51.8514 51.109ZM50.8785 50.5451C50.7231 50.4416 50.5813 50.263 50.2569 49.7765L47.8095 51.4081C48.0734 51.804 48.5198 52.5079 49.2469 52.9926L50.8785 50.5451ZM50.163 51.5338L50.8984 50.6514L48.6387 48.7683L47.9034 49.6507L50.163 51.5338ZM48.5074 50.4665C49.0496 51.3701 49.6776 52.044 50.5816 52.496L51.897 49.8651C51.6244 49.7288 51.37 49.5203 51.0297 48.9532L48.5074 50.4665ZM50.4235 52.4043C51.1601 52.8953 52.0506 53.0925 52.8571 53.0925V50.1511C52.487 50.1511 52.2009 50.0541 52.0551 49.9569L50.4235 52.4043ZM52.8571 53.0925C53.5909 53.0925 54.2596 52.859 54.6914 52.6431L53.3759 50.0122C53.3115 50.0444 53.2181 50.0824 53.1135 50.111C53.0078 50.1398 52.9194 50.1511 52.8571 50.1511V53.0925ZM54.6914 52.6431C54.9799 52.4988 55.237 52.3003 55.3573 52.2101C55.4354 52.1515 55.4845 52.115 55.5287 52.0846C55.5718 52.055 55.5837 52.0499 55.5738 52.0548L54.2584 49.4239C53.9698 49.5682 53.7127 49.7667 53.5924 49.8569C53.5143 49.9155 53.4653 49.952 53.4211 49.9824C53.378 50.012 53.3661 50.0171 53.3759 50.0122L54.6914 52.6431ZM56.2315 51.3971C56.3359 51.1883 56.6809 50.5658 56.6809 49.8569H53.7395C53.7395 49.7631 53.7621 49.726 53.7412 49.7817C53.7319 49.8066 53.7169 49.8422 53.6924 49.8945C53.6672 49.9484 53.6389 50.0052 53.6006 50.0816L56.2315 51.3971ZM56.6809 49.8569C56.6809 49.682 56.7484 48.8739 56.1031 48.2287L54.0232 50.3086C53.9705 50.2559 53.9051 50.1765 53.8484 50.0694C53.7917 49.9623 53.7634 49.8648 53.7497 49.7961C53.7376 49.7357 53.7376 49.7009 53.7384 49.7204C53.7393 49.7425 53.7395 49.775 53.7395 49.8569H56.6809ZM56.5339 49.2686C56.5339 48.7152 56.2663 48.3236 56.1478 48.1656C56.0177 47.9921 55.8633 47.8418 55.809 47.7875L53.7291 49.8674C53.769 49.9073 53.7886 49.9271 53.8041 49.9436C53.819 49.9595 53.8115 49.953 53.7946 49.9304C53.779 49.9095 53.7338 49.847 53.6905 49.7478C53.6456 49.6453 53.5924 49.4801 53.5924 49.2686H56.5339ZM55.809 47.7875C55.6316 47.61 55.3494 47.3262 54.8384 47.0707L53.523 49.7016C53.5772 49.7288 53.6 49.7463 53.6113 49.7552C53.6311 49.7711 53.6513 49.7896 53.7291 49.8674L55.809 47.7875ZM54.8384 47.0707C54.5923 46.9477 54.3983 46.8839 54.2781 46.8439C54.1777 46.8104 54.1511 46.8006 54.1031 46.7766L52.7876 49.4075C53.0338 49.5306 53.2278 49.5943 53.348 49.6344C53.4484 49.6679 53.475 49.6776 53.523 49.7016L54.8384 47.0707ZM54.1031 46.7766C53.7906 46.6204 53.4906 46.5506 53.3608 46.5182C53.1964 46.4771 53.2023 46.4733 53.2207 46.4825L51.9052 49.1134C52.2177 49.2696 52.5177 49.3394 52.6475 49.3718C52.8119 49.4129 52.806 49.4167 52.7876 49.4075L54.1031 46.7766ZM53.028 46.4027C52.788 46.3227 52.4735 46.2316 52.2785 46.1716C52.1665 46.1372 52.0749 46.1076 52.0009 46.0813C51.9214 46.053 51.8932 46.0393 51.897 46.0412L50.5816 48.6722C50.854 48.8084 51.1889 48.9139 51.4134 48.983C51.6964 49.0701 51.8966 49.1261 52.0978 49.1932L53.028 46.4027ZM51.7044 45.9615C51.6684 45.9495 51.6125 45.9237 51.4852 45.8388C51.4532 45.8175 51.4207 45.7953 51.3805 45.7677C51.3431 45.742 51.2961 45.7097 51.2485 45.678C51.1556 45.6161 51.0226 45.5305 50.8675 45.453L49.552 48.0839C49.544 48.0798 49.5581 48.0862 49.6169 48.1254C49.6451 48.1442 49.6751 48.1648 49.7164 48.1931C49.7549 48.2195 49.8028 48.2525 49.8536 48.2863C50.0572 48.422 50.3689 48.6169 50.7742 48.7519L51.7044 45.9615ZM51.2497 45.7285C51.1411 45.6198 51.0838 45.5219 50.9369 45.2283L48.306 46.5437C48.4534 46.8384 48.6902 47.3287 49.1698 47.8084L51.2497 45.7285ZM50.9369 45.2283C50.9647 45.2837 50.9712 45.3166 50.9695 45.3094C50.968 45.3028 50.9626 45.2756 50.9575 45.2197C50.9463 45.0963 50.9451 44.9453 50.9451 44.7094H48.0037C48.0037 44.9147 48.0026 45.205 48.0281 45.486C48.0528 45.7575 48.1116 46.1548 48.306 46.5437L50.9369 45.2283ZM50.9451 44.7094C50.9451 44.647 50.9564 44.5587 50.9852 44.453C51.0138 44.3483 51.0518 44.255 51.084 44.1906L48.4531 42.8751C48.2372 43.3069 48.0037 43.9756 48.0037 44.7094H50.9451ZM51.084 44.1906C51.0998 44.159 51.1235 44.1158 51.1532 44.068C51.1829 44.0201 51.2136 43.9759 51.242 43.9394C51.2559 43.9215 51.2676 43.9076 51.2768 43.8973C51.2861 43.8869 51.2908 43.8826 51.2903 43.883C51.2902 43.8831 51.2812 43.8916 51.2628 43.9051C51.2449 43.9182 51.2112 43.9411 51.1616 43.9658L49.8462 41.3349C49.4021 41.557 49.0914 41.9134 48.9202 42.1335C48.7248 42.3847 48.5643 42.6526 48.4531 42.8751L51.084 44.1906ZM51.5439 43.6904C51.5272 43.707 51.5483 43.6806 51.6764 43.6166C51.7366 43.5864 51.802 43.5568 51.8904 43.5172C51.967 43.4829 52.0829 43.4317 52.1911 43.3776L50.8757 40.7467C50.8368 40.7661 50.7873 40.7884 50.6892 40.8322C50.6031 40.8708 50.4845 40.9239 50.3609 40.9857C50.1214 41.1054 49.7748 41.2996 49.464 41.6104L51.5439 43.6904ZM51.9985 43.4574C52.1785 43.3974 52.3827 43.3858 52.8571 43.3858V40.4443C52.449 40.4443 51.7708 40.4327 51.0683 40.6669L51.9985 43.4574ZM52.8571 43.3858C53.183 43.3858 53.4221 43.4576 53.8627 43.6044L54.7929 40.8139C54.3511 40.6667 53.7077 40.4443 52.8571 40.4443V43.3858ZM53.8627 43.6044C54.164 43.7049 54.3412 43.7896 54.6886 44.0212L56.3202 41.5738C55.7851 41.217 55.374 41.0077 54.7929 40.8139L53.8627 43.6044ZM54.4644 43.8374C54.7569 44.13 54.9575 44.3344 55.1631 44.6428L57.6105 43.0112C57.2278 42.4371 56.8401 42.0533 56.5443 41.7575L54.4644 43.8374ZM55.3468 42.787L54.4644 43.6694L56.5443 45.7494L57.4268 44.8669L55.3468 42.787ZM56.8198 44.0517C56.5427 43.4975 56.0441 43.0222 55.809 42.787L53.7291 44.8669C53.8835 45.0214 53.9944 45.1331 54.085 45.2367C54.178 45.3429 54.1961 45.3816 54.1889 45.3671L56.8198 44.0517ZM55.809 42.787C55.3293 42.3074 54.839 42.0706 54.5443 41.9232L53.2288 44.5541C53.5225 44.701 53.6204 44.7583 53.7291 44.8669L55.809 42.787ZM54.9265 42.1987C54.1514 41.4236 53.2434 41.4738 52.8571 41.4738V44.4153C52.9139 44.4153 52.9583 44.4153 52.9993 44.4157C53.0395 44.4162 53.0686 44.417 53.091 44.4181C53.1378 44.4204 53.1353 44.4231 53.1079 44.417C53.0742 44.4095 53.0198 44.3927 52.9594 44.3598C52.8995 44.3271 52.8619 44.2939 52.8466 44.2786L54.9265 42.1987ZM52.8571 41.4738C52.1232 41.4738 51.4546 41.7073 51.0228 41.9232L52.3382 44.5541C52.4026 44.5219 52.496 44.4839 52.6006 44.4554C52.7064 44.4265 52.7947 44.4153 52.8571 44.4153V41.4738ZM51.0228 41.9232C50.4767 42.1963 50.0154 42.6768 49.9052 42.787L51.9851 44.8669C52.0592 44.7929 52.1337 44.719 52.2148 44.6495C52.254 44.6158 52.2872 44.5899 52.3134 44.5714C52.3409 44.5518 52.349 44.5487 52.3382 44.5541L51.0228 41.9232ZM49.6297 43.1692C49.5253 43.378 49.1803 44.0005 49.1803 44.7094H52.1217C52.1217 44.8032 52.0991 44.8403 52.12 44.7846C52.1293 44.7597 52.1443 44.7241 52.1688 44.6718C52.194 44.618 52.2224 44.5612 52.2606 44.4847L49.6297 43.1692ZM49.1803 44.7094C49.1803 44.8275 49.1765 45.0659 49.2187 45.3189C49.2669 45.6083 49.3613 45.8598 49.4826 46.1025L52.1135 44.787C52.0984 44.7568 52.0981 44.7522 52.1028 44.766C52.1053 44.7732 52.1086 44.7837 52.112 44.7968C52.1154 44.8101 52.1181 44.8232 52.1201 44.8353C52.1241 44.8596 52.1237 44.8698 52.1229 44.8505C52.1225 44.8403 52.1222 44.8249 52.1219 44.8005C52.1217 44.7754 52.1217 44.7476 52.1217 44.7094H49.1803ZM49.7581 46.4847C49.7163 46.4429 49.7013 46.4188 49.7189 46.4431C49.7349 46.465 49.7547 46.4943 49.795 46.5547C49.8282 46.6046 49.882 46.6856 49.9396 46.7648C49.9955 46.8417 50.084 46.9577 50.1993 47.073L52.2792 44.9931C52.321 45.0349 52.336 45.059 52.3184 45.0347C52.3025 45.0128 52.2827 44.9835 52.2424 44.9231C52.2091 44.8732 52.1554 44.7922 52.0978 44.713C52.0419 44.6361 51.9533 44.5201 51.838 44.4048L49.7581 46.4847ZM50.1993 47.073C50.4172 47.2908 50.669 47.4431 50.8221 47.5306C50.993 47.6283 51.1787 47.7206 51.3169 47.7897L52.6324 45.1588C52.4764 45.0808 52.368 45.0261 52.2815 44.9767C52.241 44.9536 52.2209 44.9403 52.2147 44.936C52.2058 44.9298 52.2345 44.9483 52.2792 44.9931L50.1993 47.073ZM51.3169 47.7897C51.6829 47.9727 52.0772 48.0379 52.2447 48.0683C52.4811 48.1113 52.5861 48.1303 52.6861 48.1637L53.6163 45.3732C53.2751 45.2594 52.9389 45.2049 52.7709 45.1743C52.6702 45.156 52.6196 45.1456 52.5858 45.137C52.5533 45.1286 52.5792 45.1323 52.6324 45.1588L51.3169 47.7897ZM52.7945 48.1952C53.3502 48.3341 53.6679 48.4505 53.8171 48.5251L55.1326 45.8942C54.6935 45.6747 54.1288 45.4968 53.5079 45.3416L52.7945 48.1952ZM54.0098 48.6049C54.0457 48.6169 54.1017 48.6426 54.229 48.7275C54.261 48.7488 54.2934 48.7711 54.3336 48.7986C54.3711 48.8243 54.418 48.8566 54.4657 48.8883C54.5585 48.9503 54.6915 49.0358 54.8466 49.1134L56.1621 46.4825C56.1702 46.4865 56.1561 46.4801 56.0973 46.4409C56.0691 46.4221 56.039 46.4015 55.9978 46.3732C55.9593 46.3468 55.9113 46.3139 55.8606 46.2801C55.6569 46.1443 55.3452 45.9495 54.9399 45.8144L54.0098 48.6049ZM54.4644 48.8379C54.5782 48.9517 54.6873 49.0464 54.7567 49.1069C54.8375 49.1772 54.8656 49.2023 54.8872 49.2239C54.9012 49.2379 54.8911 49.2297 54.8751 49.2054C54.8576 49.1789 54.8479 49.1556 54.8445 49.1454L57.635 48.2153C57.4726 47.728 57.2153 47.3922 56.9672 47.144C56.8601 47.037 56.7503 46.9425 56.6886 46.8888C56.6156 46.8252 56.5776 46.7913 56.5443 46.758L54.4644 48.8379ZM54.9243 49.3381C54.9586 49.4068 55.0015 49.5117 55.0333 49.6177C55.0485 49.6685 55.0576 49.7076 55.0622 49.7327C55.0675 49.7617 55.0631 49.7514 55.0631 49.7098H58.0046C58.0046 49.0825 57.7439 48.4 57.5552 48.0226L54.9243 49.3381ZM55.0631 49.7098C55.0631 50.08 54.9662 50.366 54.8689 50.5118L57.3164 52.1434C57.8074 51.4069 58.0046 50.5163 58.0046 49.7098H55.0631ZM54.8689 50.5118C54.6949 50.7728 54.4378 51.0255 54.1113 51.1888L55.4267 53.8197C56.2767 53.3947 56.9021 52.7649 57.3164 52.1434L54.8689 50.5118ZM54.4123 51.0774C53.8195 51.2256 53.391 51.3276 52.8571 51.3276V54.2691C53.7939 54.2691 54.5419 54.077 55.1257 53.931L54.4123 51.0774Z" fill="#FF0000" mask="url(#path-13-inside-3_2403_793)"/>
<path d="M32.2617 57.2102H54.3225H32.2617Z" fill="#FF0000"/>
<path d="M32.2617 57.2102H54.3225" stroke="#FF0000" stroke-width="1.47072" stroke-linecap="round" stroke-linejoin="round"/>
<path d="M32.2617 61.6226H54.3225H32.2617Z" fill="#FF0000"/>
<path d="M32.2617 61.6226H54.3225" stroke="#FF0000" stroke-width="1.47072" stroke-linecap="round" stroke-linejoin="round"/>
</svg>
