<svg width="96" height="96" viewBox="0 0 96 96" fill="none" xmlns="http://www.w3.org/2000/svg">
<path fill-rule="evenodd" clip-rule="evenodd" d="M95.3828 0.513916H22.4364L0.382812 20.8711V95.5139H95.3828V0.513916Z" fill="#FE0101" fill-opacity="0.8"/>
<path d="M1.55244 21.3832L22.8937 1.68354H94.2132V94.3443H1.55244V21.3832Z" stroke="white" stroke-opacity="0.8" stroke-width="2.33925"/>
<path d="M72.1167 86.8674L86.9219 72.439L86.7335 87.0558L72.1167 86.8674Z" fill="#FF0000" fill-opacity="0.8" stroke="white" stroke-opacity="0.9" stroke-width="2.33925"/>
<path fill-rule="evenodd" clip-rule="evenodd" d="M62.7984 30.1137V62.8868H30.0253V30.1137H62.7984ZM43.8195 38.307H40.6277L34.568 54.6935H37.4475L38.5915 51.4901H45.8454L46.9649 54.6935H50.0178L43.8195 38.307ZM55.1293 38.307H52.2614V54.6935H55.1293V38.307ZM42.1992 41.0562L45.056 49.2313H39.3881L42.1992 41.0562ZM65.5297 54.6935H70.9917V60.1558H65.5295L65.5297 54.6935ZM32.7566 65.6179H38.2186V71.0801H32.7564L32.7566 65.6179ZM43.6809 65.6179H49.143V71.0801H43.6809V65.6179ZM32.7564 21.9204H38.2186V27.3826H32.7564V21.9204ZM54.6051 65.6179H60.0674V71.0801H54.6051V65.6179ZM43.6808 21.9204H49.1429V27.3826H43.6808V21.9204ZM54.6051 21.9204H60.0674V27.3826H54.6051V21.9204ZM65.5295 43.7692H70.9917V49.2313H65.5295V43.7692ZM21.832 54.6935H27.2943V60.1558H21.832V54.6935ZM65.5295 32.8447H70.9917V38.307H65.5295V32.8447ZM21.832 43.7692H27.2943V49.2313H21.832V43.7692ZM21.832 32.8447H27.2943V38.307H21.832V32.8447Z" fill="white"/>
</svg>
