<svg width="96" height="96" viewBox="0 0 96 96" fill="none" xmlns="http://www.w3.org/2000/svg">
<path fill-rule="evenodd" clip-rule="evenodd" d="M95.7993 0.58374H22.5331L0.382812 21.0301V96.0002H95.7993V0.58374Z" fill="#FE0101" fill-opacity="0.8"/>
<path d="M1.55756 21.5445L22.9924 1.75849H94.6246V94.8255H1.55756V21.5445Z" stroke="white" stroke-opacity="0.8" stroke-width="2.3495"/>
<path d="M68.4274 47.9912H62.0148H49.1895" stroke="white" stroke-width="1.51253" stroke-miterlimit="10" stroke-linecap="round"/>
<path fill-rule="evenodd" clip-rule="evenodd" d="M34.1334 25.7972C34.8791 25.7972 35.6247 25.9461 36.2212 26.0951H36.3704C37.8617 26.542 39.2039 27.5847 40.0987 28.9253C40.3969 29.2232 40.8443 29.3721 41.1426 29.0742C41.4408 28.7763 41.59 28.3294 41.2917 28.0315C40.3969 26.6909 39.0547 25.6482 37.5634 24.9034C38.7565 22.6691 41.1426 21.0305 43.9761 21.0305C45.6165 21.0305 47.257 21.6263 48.45 22.6691V28.6274V67.2074V73.1657C47.257 74.2084 45.6165 74.8042 43.9761 74.8042C41.1426 74.8042 38.7565 73.1657 37.5634 70.7824C39.0547 70.1865 40.2478 68.9949 41.2917 67.6543C41.59 67.3563 41.4408 66.9095 41.1426 66.6116C40.8443 66.3136 40.3969 66.4626 40.0987 66.7605C39.2039 68.1011 37.8617 68.9949 36.3704 69.5907H36.2212C35.6247 70.0376 34.8791 70.1865 34.1334 70.1865C30.1068 70.1865 26.9751 66.7605 26.9751 62.5897C26.9751 61.8449 27.1242 61.2491 27.2733 60.6533V60.5043C27.7207 58.8658 28.6155 57.5251 29.8086 56.4824C30.1068 58.4189 31.1508 60.2064 32.7912 61.398C33.0895 61.696 33.5369 61.547 33.8351 61.2491C34.1334 60.9512 33.9843 60.5043 33.686 60.2064C32.1947 59.1637 31.2999 57.3762 31.2999 55.2908C31.2999 53.2054 31.2999 50.2262 32.7912 49.1835C33.0895 48.8856 34.1334 49.6304 33.8351 49.3325C33.5369 49.0346 33.0895 48.8856 32.7912 49.1835C31.1508 50.5241 29.8086 54.8439 29.8086 54.8439C28.1681 55.8866 26.8259 57.5251 26.0803 59.3126C24.2907 57.972 23.0977 55.7377 23.0977 53.2054C23.0977 51.5668 23.5451 50.0773 24.4398 48.8856H27.7207C28.1681 48.8856 28.4664 48.5877 28.4664 48.1408C28.4664 47.6939 28.1681 47.396 27.7207 47.396H24.4398C23.5451 46.2044 23.0977 44.7148 23.0977 43.0763C23.0977 40.544 24.2907 38.3096 26.0803 36.969C26.8259 38.9054 28.019 40.395 29.8086 41.4377C29.9577 43.821 31.1508 45.7575 32.7912 47.0981C33.0895 47.396 33.5369 47.2471 33.8351 46.9492C34.1334 46.6512 33.9843 46.2044 33.686 45.9064C32.1947 44.8637 31.2999 43.0763 31.2999 40.9908C31.2999 38.9054 32.1947 37.1179 33.686 36.0752C33.9843 35.7773 34.1334 35.3305 33.8351 35.0325C33.5369 34.4367 33.0895 34.4367 32.6421 34.7346C31.1508 35.9263 30.1068 37.5648 29.6594 39.6502C28.4664 38.6075 27.5716 37.2669 27.1242 35.6284V35.4794C26.9751 34.7346 26.9751 34.1388 26.9751 33.394C26.9751 29.2232 30.256 25.7972 34.1334 25.7972Z" fill="white"/>
<path d="M60.0879 68.1005H53.377V27.882H60.0879" stroke="white" stroke-width="1.51253" stroke-miterlimit="10" stroke-linecap="round"/>
<path d="M65.4501 57.0779H53.5195V38.905H65.4501" stroke="white" stroke-width="1.51253" stroke-miterlimit="10" stroke-linecap="round"/>
<path d="M70.8138 50.3749C72.156 50.3749 73.1999 49.3322 73.1999 47.9916C73.1999 46.651 72.156 45.6083 70.8138 45.6083C69.4717 45.6083 68.4277 46.651 68.4277 47.9916C68.4277 49.3322 69.4717 50.3749 70.8138 50.3749Z" stroke="white" stroke-width="1.51253" stroke-miterlimit="10" stroke-linecap="round"/>
<path d="M67.6888 41.2886C69.031 41.2886 70.0749 40.2459 70.0749 38.9053C70.0749 37.5647 69.031 36.522 67.6888 36.522C66.3467 36.522 65.3027 37.5647 65.3027 38.9053C65.4519 40.2459 66.4958 41.2886 67.6888 41.2886Z" stroke="white" stroke-width="1.51253" stroke-miterlimit="10" stroke-linecap="round"/>
<path d="M67.6888 59.61C69.031 59.61 70.0749 58.5673 70.0749 57.2267C70.0749 55.8861 69.031 54.8434 67.6888 54.8434C66.3467 54.8434 65.3027 55.8861 65.3027 57.2267C65.4519 58.4184 66.4958 59.61 67.6888 59.61Z" stroke="white" stroke-width="1.51253" stroke-miterlimit="10" stroke-linecap="round"/>
<path d="M62.476 70.4844C63.8181 70.4844 64.8621 69.4417 64.8621 68.1011C64.8621 66.7605 63.8181 65.7178 62.476 65.7178C61.1338 65.7178 60.0898 66.7605 60.0898 68.1011C60.0898 69.4417 61.1338 70.4844 62.476 70.4844Z" stroke="white" stroke-width="1.51253" stroke-miterlimit="10" stroke-linecap="round"/>
<path d="M62.7423 30.1264C64.0586 30.1264 65.0823 29.1039 65.0823 27.7892C65.0823 26.4745 64.0586 25.4519 62.7423 25.4519C61.4261 25.4519 60.4023 26.4745 60.4023 27.7892C60.4023 29.1039 61.4261 30.1264 62.7423 30.1264Z" stroke="white" stroke-width="1.4833" stroke-miterlimit="10" stroke-linecap="round"/>
<path d="M68.4274 47.9912H62.0148H49.1895" stroke="white" stroke-width="1.51253" stroke-miterlimit="10" stroke-linecap="round"/>
<path fill-rule="evenodd" clip-rule="evenodd" d="M34.1334 25.7972C34.8791 25.7972 35.6247 25.9461 36.2212 26.0951H36.3704C37.8617 26.542 39.2039 27.5847 40.0987 28.9253C40.3969 29.2232 40.8443 29.3721 41.1426 29.0742C41.4408 28.7763 41.59 28.3294 41.2917 28.0315C40.3969 26.6909 39.0547 25.6482 37.5634 24.9034C38.7565 22.6691 41.1426 21.0305 43.9761 21.0305C45.6165 21.0305 47.257 21.6263 48.45 22.6691V28.6274V67.2074V73.1657C47.257 74.2084 45.6165 74.8042 43.9761 74.8042C41.1426 74.8042 38.7565 73.1657 37.5634 70.7824C39.0547 70.1865 40.2478 68.9949 41.2917 67.6543C41.59 67.3563 41.4408 66.9095 41.1426 66.6116C40.8443 66.3136 40.3969 66.4626 40.0987 66.7605C39.2039 68.1011 37.8617 68.9949 36.3704 69.5907H36.2212C35.6247 70.0376 34.8791 70.1865 34.1334 70.1865C30.1068 70.1865 26.9751 66.7605 26.9751 62.5897C26.9751 61.8449 27.1242 61.2491 27.2733 60.6533V60.5043C27.7207 58.8658 28.6155 57.5251 29.8086 56.4824C30.1068 58.4189 31.1508 60.2064 32.7912 61.398C33.0895 61.696 33.5369 61.547 33.8351 61.2491C34.1334 60.9512 33.9843 60.5043 33.686 60.2064C32.1947 59.1637 31.2999 57.3762 31.2999 55.2908C31.2999 53.2054 31.2999 50.2262 32.7912 49.1835C33.0895 48.8856 34.1334 49.6304 33.8351 49.3325C33.5369 49.0346 33.0895 48.8856 32.7912 49.1835C31.1508 50.5241 29.8086 54.8439 29.8086 54.8439C28.1681 55.8866 26.8259 57.5251 26.0803 59.3126C24.2907 57.972 23.0977 55.7377 23.0977 53.2054C23.0977 51.5668 23.5451 50.0773 24.4398 48.8856H27.7207C28.1681 48.8856 28.4664 48.5877 28.4664 48.1408C28.4664 47.6939 28.1681 47.396 27.7207 47.396H24.4398C23.5451 46.2044 23.0977 44.7148 23.0977 43.0763C23.0977 40.544 24.2907 38.3096 26.0803 36.969C26.8259 38.9054 28.019 40.395 29.8086 41.4377C29.9577 43.821 31.1508 45.7575 32.7912 47.0981C33.0895 47.396 33.5369 47.2471 33.8351 46.9492C34.1334 46.6512 33.9843 46.2044 33.686 45.9064C32.1947 44.8637 31.2999 43.0763 31.2999 40.9908C31.2999 38.9054 32.1947 37.1179 33.686 36.0752C33.9843 35.7773 34.1334 35.3305 33.8351 35.0325C33.5369 34.4367 33.0895 34.4367 32.6421 34.7346C31.1508 35.9263 30.1068 37.5648 29.6594 39.6502C28.4664 38.6075 27.5716 37.2669 27.1242 35.6284V35.4794C26.9751 34.7346 26.9751 34.1388 26.9751 33.394C26.9751 29.2232 30.256 25.7972 34.1334 25.7972Z" fill="white"/>
<path d="M60.0879 68.1005H53.377V27.882H60.0879" stroke="white" stroke-width="1.51253" stroke-miterlimit="10" stroke-linecap="round"/>
<path d="M65.4501 57.0779H53.5195V38.905H65.4501" stroke="white" stroke-width="1.51253" stroke-miterlimit="10" stroke-linecap="round"/>
<path d="M70.8138 50.3749C72.156 50.3749 73.1999 49.3322 73.1999 47.9916C73.1999 46.651 72.156 45.6083 70.8138 45.6083C69.4717 45.6083 68.4277 46.651 68.4277 47.9916C68.4277 49.3322 69.4717 50.3749 70.8138 50.3749Z" stroke="white" stroke-width="1.51253" stroke-miterlimit="10" stroke-linecap="round"/>
<path d="M67.6888 41.2886C69.031 41.2886 70.0749 40.2459 70.0749 38.9053C70.0749 37.5647 69.031 36.522 67.6888 36.522C66.3467 36.522 65.3027 37.5647 65.3027 38.9053C65.4519 40.2459 66.4958 41.2886 67.6888 41.2886Z" stroke="white" stroke-width="1.51253" stroke-miterlimit="10" stroke-linecap="round"/>
<path d="M67.6888 59.61C69.031 59.61 70.0749 58.5673 70.0749 57.2267C70.0749 55.8861 69.031 54.8434 67.6888 54.8434C66.3467 54.8434 65.3027 55.8861 65.3027 57.2267C65.4519 58.4184 66.4958 59.61 67.6888 59.61Z" stroke="white" stroke-width="1.51253" stroke-miterlimit="10" stroke-linecap="round"/>
<path d="M62.476 70.4844C63.8181 70.4844 64.8621 69.4417 64.8621 68.1011C64.8621 66.7605 63.8181 65.7178 62.476 65.7178C61.1338 65.7178 60.0898 66.7605 60.0898 68.1011C60.0898 69.4417 61.1338 70.4844 62.476 70.4844Z" stroke="white" stroke-width="1.51253" stroke-miterlimit="10" stroke-linecap="round"/>
<path d="M62.7423 30.1264C64.0586 30.1264 65.0823 29.1039 65.0823 27.7892C65.0823 26.4745 64.0586 25.4519 62.7423 25.4519C61.4261 25.4519 60.4023 26.4745 60.4023 27.7892C60.4023 29.1039 61.4261 30.1264 62.7423 30.1264Z" stroke="white" stroke-width="1.4833" stroke-miterlimit="10" stroke-linecap="round"/>
<path d="M72.4307 87.3162L87.3008 72.8245L87.1116 87.5054L72.4307 87.3162Z" fill="#FF0000" fill-opacity="0.8" stroke="white" stroke-opacity="0.9" stroke-width="2.3495"/>
</svg>
