<svg width="1197" height="134" viewBox="0 0 1197 134" fill="none" xmlns="http://www.w3.org/2000/svg">
<path d="M431 41H1076.31L1189 131L431 130.5" stroke="#FF0000" stroke-opacity="0.64" stroke-width="5"/>
<path d="M68.0895 76.147C67.373 74.8334 66.3878 73.8333 65.1339 73.1467C63.8801 72.46 62.4172 72.1167 60.7454 72.1167C58.8945 72.1167 57.2525 72.5347 55.8195 73.3706C54.3866 74.2065 53.267 75.4006 52.461 76.953C51.6549 78.5054 51.2519 80.2967 51.2519 82.3267C51.2519 84.4165 51.6549 86.2376 52.461 87.79C53.2969 89.3424 54.4463 90.5365 55.9091 91.3724C57.3719 92.2084 59.0736 92.6263 61.0141 92.6263C63.4024 92.6263 65.3579 91.9994 66.8804 90.7455C68.4029 89.4618 69.4031 87.6855 69.8807 85.4166H59.1333V80.6251H76.0605V86.0883C75.6425 88.2676 74.7469 90.2828 73.3736 92.1337C72.0003 93.9847 70.224 95.4773 68.0447 96.6118C65.8952 97.7164 63.4771 98.2687 60.7902 98.2687C57.775 98.2687 55.0433 97.597 52.5953 96.2535C50.1772 94.8803 48.2665 92.9846 46.8634 90.5664C45.4901 88.1482 44.8035 85.4017 44.8035 82.3267C44.8035 79.2518 45.4901 76.5052 46.8634 74.0871C48.2665 71.639 50.1772 69.7433 52.5953 68.3999C55.0433 67.0266 57.76 66.34 60.7454 66.34C64.2682 66.34 67.3282 67.2057 69.9255 68.9373C72.5228 70.6389 74.314 73.0422 75.2992 76.147H68.0895ZM106 85.0584C106 85.954 105.94 86.76 105.821 87.4765H87.6846C87.8338 89.2677 88.4608 90.6709 89.5654 91.6859C90.67 92.7009 92.0283 93.2085 93.6404 93.2085C95.969 93.2085 97.6259 92.2084 98.6111 90.2081H105.373C104.656 92.5965 103.283 94.5668 101.253 96.1192C99.2231 97.6418 96.7303 98.403 93.7748 98.403C91.3864 98.403 89.237 97.8806 87.3263 96.8357C85.4455 95.761 83.9678 94.2533 82.893 92.3128C81.8481 90.3723 81.3257 88.1333 81.3257 85.5957C81.3257 83.0283 81.8481 80.7743 82.893 78.8338C83.9379 76.8933 85.4008 75.4006 87.2815 74.3557C89.1623 73.3109 91.3267 72.7884 93.7748 72.7884C96.1332 72.7884 98.2379 73.2959 100.089 74.311C101.97 75.326 103.418 76.7739 104.433 78.6547C105.477 80.5056 106 82.6402 106 85.0584ZM99.5067 83.2671C99.4768 81.655 98.8947 80.3713 97.7602 79.416C96.6258 78.4308 95.2376 77.9382 93.5956 77.9382C92.0432 77.9382 90.7297 78.4159 89.6549 79.3712C88.61 80.2967 87.9682 81.5953 87.7294 83.2671H99.5067ZM120.114 78.3412V90.3425C120.114 91.1784 120.308 91.7904 120.696 92.1785C121.114 92.5367 121.801 92.7159 122.756 92.7159H125.667V98H121.726C116.442 98 113.8 95.4326 113.8 90.2977V78.3412H110.845V73.1914H113.8V67.0565H120.114V73.1914H125.667V78.3412H120.114ZM159.296 72.8332C161.177 72.8332 162.849 73.2512 164.312 74.0871C165.775 74.8931 166.909 76.1022 167.715 77.7143C168.551 79.2966 168.969 81.2072 168.969 83.4462V98H162.7V84.2971C162.7 82.3267 162.207 80.8191 161.222 79.7742C160.237 78.6995 158.893 78.1621 157.192 78.1621C155.46 78.1621 154.087 78.6995 153.072 79.7742C152.087 80.8191 151.594 82.3267 151.594 84.2971V98H145.325V64.8622H151.594V76.2813C152.4 75.2066 153.475 74.3707 154.818 73.7736C156.162 73.1467 157.654 72.8332 159.296 72.8332ZM180.349 70.2359C179.245 70.2359 178.319 69.8926 177.573 69.206C176.856 68.4895 176.498 67.6088 176.498 66.5639C176.498 65.519 176.856 64.6532 177.573 63.9666C178.319 63.2501 179.245 62.8919 180.349 62.8919C181.454 62.8919 182.364 63.2501 183.081 63.9666C183.827 64.6532 184.2 65.519 184.2 66.5639C184.2 67.6088 183.827 68.4895 183.081 69.206C182.364 69.8926 181.454 70.2359 180.349 70.2359ZM183.439 73.1914V98H177.17V73.1914H183.439ZM198.142 77.0426C198.948 75.729 199.993 74.6991 201.276 73.9527C202.59 73.2064 204.083 72.8332 205.754 72.8332V79.416H204.097C202.127 79.416 200.634 79.8787 199.619 80.8042C198.634 81.7296 198.142 83.3418 198.142 85.6405V98H191.872V73.1914H198.142V77.0426ZM235.278 85.0584C235.278 85.954 235.218 86.76 235.099 87.4765H216.963C217.112 89.2677 217.739 90.6709 218.844 91.6859C219.948 92.7009 221.307 93.2085 222.919 93.2085C225.247 93.2085 226.904 92.2084 227.889 90.2081H234.651C233.935 92.5965 232.561 94.5668 230.531 96.1192C228.501 97.6418 226.009 98.403 223.053 98.403C220.665 98.403 218.515 97.8806 216.605 96.8357C214.724 95.761 213.246 94.2533 212.171 92.3128C211.126 90.3723 210.604 88.1333 210.604 85.5957C210.604 83.0283 211.126 80.7743 212.171 78.8338C213.216 76.8933 214.679 75.4006 216.56 74.3557C218.441 73.3109 220.605 72.7884 223.053 72.7884C225.411 72.7884 227.516 73.2959 229.367 74.311C231.248 75.326 232.696 76.7739 233.711 78.6547C234.756 80.5056 235.278 82.6402 235.278 85.0584ZM228.785 83.2671C228.755 81.655 228.173 80.3713 227.039 79.416C225.904 78.4308 224.516 77.9382 222.874 77.9382C221.322 77.9382 220.008 78.4159 218.933 79.3712C217.888 80.2967 217.246 81.5953 217.008 83.2671H228.785ZM240.481 85.5062C240.481 82.9984 240.974 80.7743 241.959 78.8338C242.974 76.8933 244.347 75.4006 246.079 74.3557C247.81 73.3109 249.736 72.7884 251.855 72.7884C253.468 72.7884 255.005 73.1467 256.468 73.8632C257.931 74.5498 259.095 75.4753 259.961 76.6396V64.8622H266.32V98H259.961V94.328C259.185 95.552 258.095 96.5372 256.692 97.2835C255.289 98.0299 253.662 98.403 251.811 98.403C249.721 98.403 247.81 97.8657 246.079 96.7909C244.347 95.7162 242.974 94.2086 241.959 92.2681C240.974 90.2977 240.481 88.0437 240.481 85.5062ZM260.006 85.5957C260.006 84.0732 259.707 82.7745 259.11 81.6998C258.513 80.5952 257.707 79.7593 256.692 79.1921C255.677 78.595 254.587 78.2965 253.423 78.2965C252.258 78.2965 251.184 78.5801 250.199 79.1473C249.213 79.7145 248.407 80.5504 247.78 81.655C247.183 82.7298 246.885 84.0135 246.885 85.5062C246.885 86.9989 247.183 88.3124 247.78 89.4469C248.407 90.5515 249.213 91.4023 250.199 91.9994C251.214 92.5965 252.288 92.895 253.423 92.895C254.587 92.895 255.677 92.6114 256.692 92.0442C257.707 91.4471 258.513 90.6112 259.11 89.5364C259.707 88.4318 260.006 87.1183 260.006 85.5957ZM298.966 78.3412H294.622V98H288.263V78.3412H285.442V73.1914H288.263V71.9376C288.263 68.8925 289.129 66.6535 290.86 65.2205C292.592 63.7875 295.204 63.1158 298.697 63.2053V68.4895C297.174 68.4596 296.114 68.7134 295.517 69.2507C294.92 69.7881 294.622 70.7584 294.622 72.1615V73.1914H298.966V78.3412ZM303.655 85.5062C303.655 82.9984 304.148 80.7743 305.133 78.8338C306.148 76.8933 307.506 75.4006 309.208 74.3557C310.94 73.3109 312.865 72.7884 314.985 72.7884C316.836 72.7884 318.448 73.1616 319.821 73.9079C321.224 74.6543 322.344 75.5947 323.18 76.7291V73.1914H329.494V98H323.18V94.3728C322.374 95.5371 321.254 96.5073 319.821 97.2835C318.418 98.0299 316.791 98.403 314.94 98.403C312.85 98.403 310.94 97.8657 309.208 96.7909C307.506 95.7162 306.148 94.2086 305.133 92.2681C304.148 90.2977 303.655 88.0437 303.655 85.5062ZM323.18 85.5957C323.18 84.0732 322.881 82.7745 322.284 81.6998C321.687 80.5952 320.881 79.7593 319.866 79.1921C318.851 78.595 317.761 78.2965 316.597 78.2965C315.433 78.2965 314.358 78.5801 313.373 79.1473C312.388 79.7145 311.581 80.5504 310.955 81.655C310.357 82.7298 310.059 84.0135 310.059 85.5062C310.059 86.9989 310.357 88.3124 310.955 89.4469C311.581 90.5515 312.388 91.4023 313.373 91.9994C314.388 92.5965 315.462 92.895 316.597 92.895C317.761 92.895 318.851 92.6114 319.866 92.0442C320.881 91.4471 321.687 90.6112 322.284 89.5364C322.881 88.4318 323.18 87.1183 323.18 85.5957ZM347.349 98.403C345.319 98.403 343.498 98.0448 341.886 97.3283C340.274 96.5819 338.99 95.5818 338.035 94.328C337.11 93.0741 336.602 91.6859 336.512 90.1634H342.827C342.946 91.1187 343.409 91.9098 344.215 92.5367C345.051 93.1637 346.081 93.4771 347.305 93.4771C348.499 93.4771 349.424 93.2383 350.081 92.7606C350.768 92.283 351.111 91.671 351.111 90.9246C351.111 90.1186 350.693 89.5215 349.857 89.1334C349.051 88.7155 347.752 88.2676 345.961 87.79C344.11 87.3422 342.588 86.8794 341.394 86.4018C340.229 85.9241 339.214 85.1927 338.348 84.2075C337.513 83.2223 337.095 81.8938 337.095 80.222C337.095 78.8488 337.483 77.5949 338.259 76.4604C339.065 75.326 340.199 74.4304 341.662 73.7736C343.155 73.1168 344.901 72.7884 346.902 72.7884C349.857 72.7884 352.216 73.5348 353.977 75.0275C355.738 76.4903 356.709 78.4756 356.888 80.9833H350.887C350.798 79.9981 350.38 79.2219 349.633 78.6547C348.917 78.0576 347.946 77.7591 346.722 77.7591C345.588 77.7591 344.707 77.9681 344.08 78.386C343.483 78.804 343.185 79.3861 343.185 80.1325C343.185 80.9684 343.603 81.6102 344.439 82.058C345.275 82.476 346.573 82.9089 348.335 83.3567C350.126 83.8045 351.604 84.2672 352.768 84.7449C353.932 85.2226 354.932 85.9689 355.768 86.9839C356.634 87.9691 357.082 89.2827 357.112 90.9246C357.112 92.3576 356.709 93.6413 355.903 94.7758C355.126 95.9102 353.992 96.8058 352.499 97.4626C351.036 98.0896 349.32 98.403 347.349 98.403ZM371.796 78.3412V90.3425C371.796 91.1784 371.99 91.7904 372.378 92.1785C372.796 92.5367 373.483 92.7159 374.438 92.7159H377.349V98H373.408C368.124 98 365.482 95.4326 365.482 90.2977V78.3412H362.527V73.1914H365.482V67.0565H371.796V73.1914H377.349V78.3412H371.796ZM431.398 73.1914L424.144 98H417.382L412.859 80.6698L408.336 98H401.53L394.23 73.1914H400.589L404.978 92.0889L409.725 73.1914H416.352L421.009 92.0442L425.398 73.1914H431.398ZM440.209 70.2359C439.104 70.2359 438.179 69.8926 437.433 69.206C436.716 68.4895 436.358 67.6088 436.358 66.5639C436.358 65.519 436.716 64.6532 437.433 63.9666C438.179 63.2501 439.104 62.8919 440.209 62.8919C441.314 62.8919 442.224 63.2501 442.941 63.9666C443.687 64.6532 444.06 65.519 444.06 66.5639C444.06 67.6088 443.687 68.4895 442.941 69.206C442.224 69.8926 441.314 70.2359 440.209 70.2359ZM443.299 73.1914V98H437.03V73.1914H443.299ZM459.031 78.3412V90.3425C459.031 91.1784 459.225 91.7904 459.613 92.1785C460.031 92.5367 460.718 92.7159 461.673 92.7159H464.584V98H460.643C455.359 98 452.717 95.4326 452.717 90.2977V78.3412H449.762V73.1914H452.717V67.0565H459.031V73.1914H464.584V78.3412H459.031ZM485.304 72.8332C487.185 72.8332 488.857 73.2512 490.319 74.0871C491.782 74.8931 492.917 76.1022 493.723 77.7143C494.559 79.2966 494.977 81.2072 494.977 83.4462V98H488.707V84.2971C488.707 82.3267 488.215 80.8191 487.23 79.7742C486.244 78.6995 484.901 78.1621 483.199 78.1621C481.468 78.1621 480.094 78.6995 479.079 79.7742C478.094 80.8191 477.602 82.3267 477.602 84.2971V98H471.332V64.8622H477.602V76.2813C478.408 75.2066 479.482 74.3707 480.826 73.7736C482.169 73.1467 483.662 72.8332 485.304 72.8332ZM514.475 85.5062C514.475 82.9984 514.967 80.7743 515.953 78.8338C516.968 76.8933 518.326 75.4006 520.028 74.3557C521.759 73.3109 523.685 72.7884 525.804 72.7884C527.655 72.7884 529.267 73.1616 530.641 73.9079C532.044 74.6543 533.163 75.5947 533.999 76.7291V73.1914H540.313V98H533.999V94.3728C533.193 95.5371 532.074 96.5073 530.641 97.2835C529.238 98.0299 527.611 98.403 525.76 98.403C523.67 98.403 521.759 97.8657 520.028 96.7909C518.326 95.7162 516.968 94.2086 515.953 92.2681C514.967 90.2977 514.475 88.0437 514.475 85.5062ZM533.999 85.5957C533.999 84.0732 533.701 82.7745 533.104 81.6998C532.507 80.5952 531.7 79.7593 530.685 79.1921C529.67 78.595 528.581 78.2965 527.416 78.2965C526.252 78.2965 525.177 78.5801 524.192 79.1473C523.207 79.7145 522.401 80.5504 521.774 81.655C521.177 82.7298 520.878 84.0135 520.878 85.5062C520.878 86.9989 521.177 88.3124 521.774 89.4469C522.401 90.5515 523.207 91.4023 524.192 91.9994C525.207 92.5965 526.282 92.895 527.416 92.895C528.581 92.895 529.67 92.6114 530.685 92.0442C531.7 91.4471 532.507 90.6112 533.104 89.5364C533.701 88.4318 533.999 87.1183 533.999 85.5957ZM567.854 76.7739C568.66 75.6395 569.765 74.6991 571.168 73.9527C572.601 73.1765 574.228 72.7884 576.049 72.7884C578.169 72.7884 580.079 73.3109 581.781 74.3557C583.513 75.4006 584.871 76.8933 585.856 78.8338C586.871 80.7445 587.379 82.9686 587.379 85.5062C587.379 88.0437 586.871 90.2977 585.856 92.2681C584.871 94.2086 583.513 95.7162 581.781 96.7909C580.079 97.8657 578.169 98.403 576.049 98.403C574.228 98.403 572.616 98.0299 571.213 97.2835C569.839 96.5372 568.72 95.5968 567.854 94.4623V109.822H561.585V73.1914H567.854V76.7739ZM580.975 85.5062C580.975 84.0135 580.661 82.7298 580.035 81.655C579.437 80.5504 578.631 79.7145 577.616 79.1473C576.631 78.5801 575.556 78.2965 574.392 78.2965C573.258 78.2965 572.183 78.595 571.168 79.1921C570.183 79.7593 569.377 80.5952 568.75 81.6998C568.153 82.8044 567.854 84.103 567.854 85.5957C567.854 87.0884 568.153 88.3871 568.75 89.4917C569.377 90.5962 570.183 91.4471 571.168 92.0442C572.183 92.6114 573.258 92.895 574.392 92.895C575.556 92.895 576.631 92.5965 577.616 91.9994C578.631 91.4023 579.437 90.5515 580.035 89.4469C580.661 88.3423 580.975 87.0287 580.975 85.5062ZM605.189 98.403C602.801 98.403 600.652 97.8806 598.741 96.8357C596.83 95.761 595.323 94.2533 594.218 92.3128C593.143 90.3723 592.606 88.1333 592.606 85.5957C592.606 83.0581 593.158 80.8191 594.263 78.8786C595.397 76.9381 596.935 75.4454 598.875 74.4005C600.816 73.3258 602.98 72.7884 605.369 72.7884C607.757 72.7884 609.921 73.3258 611.862 74.4005C613.802 75.4454 615.325 76.9381 616.429 78.8786C617.564 80.8191 618.131 83.0581 618.131 85.5957C618.131 88.1333 617.549 90.3723 616.385 92.3128C615.25 94.2533 613.698 95.761 611.727 96.8357C609.787 97.8806 607.608 98.403 605.189 98.403ZM605.189 92.9398C606.324 92.9398 607.384 92.6711 608.369 92.1337C609.384 91.5665 610.19 90.7306 610.787 89.626C611.384 88.5214 611.683 87.178 611.683 85.5957C611.683 83.2373 611.056 81.4311 609.802 80.1772C608.578 78.8935 607.07 78.2517 605.279 78.2517C603.488 78.2517 601.98 78.8935 600.756 80.1772C599.562 81.4311 598.965 83.2373 598.965 85.5957C598.965 87.9542 599.547 89.7753 600.711 91.059C601.906 92.3128 603.398 92.9398 605.189 92.9398ZM659.361 73.1914L652.106 98H645.344L640.821 80.6698L636.298 98H629.492L622.192 73.1914H628.551L632.94 92.0889L637.687 73.1914H644.314L648.971 92.0442L653.36 73.1914H659.361ZM688.054 85.0584C688.054 85.954 687.994 86.76 687.875 87.4765H669.738C669.888 89.2677 670.515 90.6709 671.619 91.6859C672.724 92.7009 674.082 93.2085 675.694 93.2085C678.023 93.2085 679.68 92.2084 680.665 90.2081H687.427C686.71 92.5965 685.337 94.5668 683.307 96.1192C681.277 97.6418 678.784 98.403 675.829 98.403C673.44 98.403 671.291 97.8806 669.38 96.8357C667.499 95.761 666.022 94.2533 664.947 92.3128C663.902 90.3723 663.38 88.1333 663.38 85.5957C663.38 83.0283 663.902 80.7743 664.947 78.8338C665.992 76.8933 667.455 75.4006 669.335 74.3557C671.216 73.3109 673.381 72.7884 675.829 72.7884C678.187 72.7884 680.292 73.2959 682.143 74.311C684.024 75.326 685.471 76.7739 686.487 78.6547C687.531 80.5056 688.054 82.6402 688.054 85.0584ZM681.561 83.2671C681.531 81.655 680.949 80.3713 679.814 79.416C678.68 78.4308 677.292 77.9382 675.65 77.9382C674.097 77.9382 672.784 78.4159 671.709 79.3712C670.664 80.2967 670.022 81.5953 669.783 83.2671H681.561ZM701.138 77.0426C701.944 75.729 702.989 74.6991 704.273 73.9527C705.586 73.2064 707.079 72.8332 708.751 72.8332V79.416H707.094C705.124 79.416 703.631 79.8787 702.616 80.8042C701.631 81.7296 701.138 83.3418 701.138 85.6405V98H694.869V73.1914H701.138V77.0426ZM726.587 78.3412H722.243V98H715.884V78.3412H713.063V73.1914H715.884V71.9376C715.884 68.8925 716.75 66.6535 718.482 65.2205C720.213 63.7875 722.825 63.1158 726.318 63.2053V68.4895C724.796 68.4596 723.736 68.7134 723.139 69.2507C722.542 69.7881 722.243 70.7584 722.243 72.1615V73.1914H726.587V78.3412ZM756.309 73.1914V98H749.995V94.8653C749.189 95.9401 748.129 96.7909 746.816 97.4178C745.532 98.0149 744.129 98.3135 742.606 98.3135C740.666 98.3135 738.949 97.9104 737.456 97.1044C735.964 96.2685 734.785 95.0594 733.919 93.4771C733.083 91.865 732.665 89.9544 732.665 87.7452V73.1914H738.934V86.8496C738.934 88.8199 739.427 90.3425 740.412 91.4172C741.397 92.4621 742.741 92.9846 744.442 92.9846C746.174 92.9846 747.532 92.4621 748.517 91.4172C749.502 90.3425 749.995 88.8199 749.995 86.8496V73.1914H756.309ZM771.003 64.8622V98H764.734V64.8622H771.003ZM798.615 77.0426C799.421 75.729 800.466 74.6991 801.75 73.9527C803.063 73.2064 804.556 72.8332 806.228 72.8332V79.416H804.571C802.601 79.416 801.108 79.8787 800.093 80.8042C799.108 81.7296 798.615 83.3418 798.615 85.6405V98H792.346V73.1914H798.615V77.0426ZM835.752 85.0584C835.752 85.954 835.692 86.76 835.573 87.4765H817.436C817.586 89.2677 818.213 90.6709 819.317 91.6859C820.422 92.7009 821.78 93.2085 823.392 93.2085C825.721 93.2085 827.378 92.2084 828.363 90.2081H835.125C834.408 92.5965 833.035 94.5668 831.005 96.1192C828.975 97.6418 826.482 98.403 823.527 98.403C821.138 98.403 818.989 97.8806 817.078 96.8357C815.197 95.761 813.72 94.2533 812.645 92.3128C811.6 90.3723 811.077 88.1333 811.077 85.5957C811.077 83.0283 811.6 80.7743 812.645 78.8338C813.69 76.8933 815.153 75.4006 817.033 74.3557C818.914 73.3109 821.079 72.7884 823.527 72.7884C825.885 72.7884 827.99 73.2959 829.841 74.311C831.721 75.326 833.169 76.7739 834.184 78.6547C835.229 80.5056 835.752 82.6402 835.752 85.0584ZM829.258 83.2671C829.229 81.655 828.646 80.3713 827.512 79.416C826.378 78.4308 824.989 77.9382 823.347 77.9382C821.795 77.9382 820.481 78.4159 819.407 79.3712C818.362 80.2967 817.72 81.5953 817.481 83.2671H829.258ZM852.06 98.403C850.03 98.403 848.209 98.0448 846.597 97.3283C844.985 96.5819 843.701 95.5818 842.746 94.328C841.82 93.0741 841.313 91.6859 841.223 90.1634H847.537C847.657 91.1187 848.12 91.9098 848.926 92.5367C849.762 93.1637 850.792 93.4771 852.016 93.4771C853.21 93.4771 854.135 93.2383 854.792 92.7606C855.479 92.283 855.822 91.671 855.822 90.9246C855.822 90.1186 855.404 89.5215 854.568 89.1334C853.762 88.7155 852.463 88.2676 850.672 87.79C848.821 87.3422 847.299 86.8794 846.104 86.4018C844.94 85.9241 843.925 85.1927 843.059 84.2075C842.223 83.2223 841.806 81.8938 841.806 80.222C841.806 78.8488 842.194 77.5949 842.97 76.4604C843.776 75.326 844.91 74.4304 846.373 73.7736C847.866 73.1168 849.612 72.7884 851.613 72.7884C854.568 72.7884 856.927 73.5348 858.688 75.0275C860.449 76.4903 861.42 78.4756 861.599 80.9833H855.598C855.508 79.9981 855.09 79.2219 854.344 78.6547C853.628 78.0576 852.657 77.7591 851.433 77.7591C850.299 77.7591 849.418 77.9681 848.791 78.386C848.194 78.804 847.896 79.3861 847.896 80.1325C847.896 80.9684 848.314 81.6102 849.15 82.058C849.985 82.476 851.284 82.9089 853.046 83.3567C854.837 83.8045 856.315 84.2672 857.479 84.7449C858.643 85.2226 859.643 85.9689 860.479 86.9839C861.345 87.9691 861.793 89.2827 861.823 90.9246C861.823 92.3576 861.42 93.6413 860.613 94.7758C859.837 95.9102 858.703 96.8058 857.21 97.4626C855.747 98.0896 854.031 98.403 852.06 98.403ZM892.628 73.1914V98H886.314V94.8653C885.508 95.9401 884.448 96.7909 883.135 97.4178C881.851 98.0149 880.448 98.3135 878.925 98.3135C876.985 98.3135 875.268 97.9104 873.775 97.1044C872.283 96.2685 871.104 95.0594 870.238 93.4771C869.402 91.865 868.984 89.9544 868.984 87.7452V73.1914H875.253V86.8496C875.253 88.8199 875.746 90.3425 876.731 91.4172C877.716 92.4621 879.06 92.9846 880.761 92.9846C882.493 92.9846 883.851 92.4621 884.836 91.4172C885.822 90.3425 886.314 88.8199 886.314 86.8496V73.1914H892.628ZM931.862 72.8332C934.907 72.8332 937.355 73.7736 939.206 75.6544C941.087 77.5053 942.027 80.1026 942.027 83.4462V98H935.758V84.2971C935.758 82.3566 935.265 80.8788 934.28 79.8638C933.295 78.8189 931.952 78.2965 930.25 78.2965C928.548 78.2965 927.19 78.8189 926.175 79.8638C925.19 80.8788 924.697 82.3566 924.697 84.2971V98H918.428V84.2971C918.428 82.3566 917.935 80.8788 916.95 79.8638C915.965 78.8189 914.622 78.2965 912.92 78.2965C911.188 78.2965 909.815 78.8189 908.8 79.8638C907.815 80.8788 907.322 82.3566 907.322 84.2971V98H901.053V73.1914H907.322V76.1918C908.128 75.1469 909.158 74.3259 910.412 73.7288C911.696 73.1317 913.099 72.8332 914.622 72.8332C916.562 72.8332 918.294 73.2512 919.816 74.0871C921.339 74.8931 922.518 76.0574 923.354 77.58C924.16 76.147 925.324 74.9976 926.847 74.1318C928.399 73.2661 930.071 72.8332 931.862 72.8332ZM973.278 85.0584C973.278 85.954 973.218 86.76 973.099 87.4765H954.962C955.112 89.2677 955.739 90.6709 956.843 91.6859C957.948 92.7009 959.306 93.2085 960.918 93.2085C963.247 93.2085 964.904 92.2084 965.889 90.2081H972.651C971.934 92.5965 970.561 94.5668 968.531 96.1192C966.501 97.6418 964.008 98.403 961.053 98.403C958.664 98.403 956.515 97.8806 954.604 96.8357C952.723 95.761 951.246 94.2533 950.171 92.3128C949.126 90.3723 948.603 88.1333 948.603 85.5957C948.603 83.0283 949.126 80.7743 950.171 78.8338C951.216 76.8933 952.679 75.4006 954.559 74.3557C956.44 73.3109 958.605 72.7884 961.053 72.7884C963.411 72.7884 965.516 73.2959 967.367 74.311C969.247 75.326 970.695 76.7739 971.71 78.6547C972.755 80.5056 973.278 82.6402 973.278 85.0584ZM966.784 83.2671C966.755 81.655 966.172 80.3713 965.038 79.416C963.904 78.4308 962.515 77.9382 960.873 77.9382C959.321 77.9382 958.007 78.4159 956.933 79.3712C955.888 80.2967 955.246 81.5953 955.007 83.2671H966.784Z" fill="white"/>
<path d="M596.667 13.5C596.667 20.8638 602.636 26.8333 610 26.8333C617.364 26.8333 623.333 20.8638 623.333 13.5C623.333 6.1362 617.364 0.166667 610 0.166667C602.636 0.166667 596.667 6.1362 596.667 13.5ZM2 16H610V11H2V16Z" fill="#A30000"/>
<path d="M431.5 130.5L0.5 130.5" stroke="#A30000" stroke-width="5"/>
<path d="M2.5 11L2.49999 133" stroke="#A30000" stroke-width="5"/>
</svg>
