<svg width="95" height="95" viewBox="0 0 95 95" fill="none" xmlns="http://www.w3.org/2000/svg">
<path fill-rule="evenodd" clip-rule="evenodd" d="M95 0H22.0536L0 20.3571V95H95V0Z" fill="#FE0101" fill-opacity="0.8"/>
<path d="M1.16962 20.8692L22.5109 1.16962H93.8304V93.8304H1.16962V20.8692Z" stroke="white" stroke-opacity="0.8" stroke-width="2.33925"/>
<path d="M71.7339 86.3543L86.5391 71.9258L86.3507 86.5426L71.7339 86.3543Z" fill="#FF0000" fill-opacity="0.8" stroke="white" stroke-opacity="0.9" stroke-width="2.33925"/>
<path d="M37.4226 54.5721L32.744 59.2508H23.3867V49.8935L47.9496 25.3307C48.564 24.7162 49.2934 24.2289 50.0961 23.8964C50.8989 23.5638 51.7593 23.3927 52.6282 23.3927C53.4971 23.3927 54.3575 23.5638 55.1603 23.8964C55.963 24.2289 56.6924 24.7162 57.3068 25.3307C57.9212 25.9451 58.4086 26.6745 58.7411 27.4772C59.0736 28.28 59.2448 29.1404 59.2448 30.0093C59.2448 30.8782 59.0736 31.7386 58.7411 32.5413C58.4086 33.3441 57.9212 34.0735 57.3068 34.6879L54.9675 37.0272L45.6102 27.67M55.6693 61.162L50.5883 63.8241C50.4375 63.9026 50.2679 63.9376 50.0984 63.9253C49.9288 63.9129 49.7661 63.8537 49.6282 63.7542C49.4904 63.6548 49.3829 63.5189 49.3178 63.3619C49.2527 63.2049 49.2326 63.0328 49.2596 62.865L50.2304 57.2249L46.1202 53.2317C45.9975 53.1131 45.9107 52.9624 45.8695 52.7968C45.8284 52.6312 45.8347 52.4574 45.8876 52.2951C45.9405 52.1329 46.038 51.9889 46.1689 51.8794C46.2998 51.7699 46.4588 51.6995 46.6278 51.676L52.3077 50.8526L54.8482 45.7225C54.9242 45.5697 55.0413 45.4411 55.1864 45.3513C55.3314 45.2614 55.4987 45.2138 55.6693 45.2138C55.8399 45.2138 56.0072 45.2614 56.1523 45.3513C56.2973 45.4411 56.4144 45.5697 56.4904 45.7225L59.0309 50.8526L64.7108 51.676C64.8793 51.7003 65.0377 51.7712 65.168 51.8808C65.2983 51.9904 65.3954 52.1342 65.4482 52.2961C65.501 52.4579 65.5075 52.6313 65.4669 52.7967C65.4263 52.962 65.3402 53.1127 65.2184 53.2317L61.1082 57.2249L62.0767 62.8627C62.1058 63.0308 62.0871 63.2037 62.0228 63.3617C61.9586 63.5198 61.8513 63.6567 61.7131 63.7568C61.575 63.8569 61.4116 63.9163 61.2414 63.9282C61.0712 63.9401 60.901 63.9041 60.7503 63.8241L55.6693 61.162Z" stroke="white" stroke-width="4.67864" stroke-linecap="round" stroke-linejoin="round"/>
</svg>
