<svg width="96" height="96" viewBox="0 0 96 96" fill="none" xmlns="http://www.w3.org/2000/svg">
<path fill-rule="evenodd" clip-rule="evenodd" d="M95.8328 0.513916H22.5408L0.382812 20.9675V95.9639H95.8328V0.513916Z" fill="#FE0101" fill-opacity="0.8"/>
<path d="M1.55798 21.482L23.0003 1.68908H94.6576V94.7887H1.55798V21.482Z" stroke="white" stroke-opacity="0.8" stroke-width="2.35033"/>
<path d="M72.4567 87.2769L87.332 72.78L87.1428 87.4661L72.4567 87.2769Z" fill="#FF0000" fill-opacity="0.8" stroke="white" stroke-opacity="0.9" stroke-width="2.35033"/>
<path d="M30.4213 29.7096L24.0312 36.0996H30.4213H34.0727V25.906L30.4213 29.7096Z" fill="#FFF5F5" stroke="#FF0004" stroke-width="1.52144" stroke-linecap="round" stroke-linejoin="round"/>
<path d="M68.2996 19.3165H32.8501C31.4808 19.3165 30.2637 20.3815 30.2637 21.903V29.6623L33.9151 26.0109H61.7574C63.1267 26.0109 64.3439 27.0759 64.3439 28.5973V67.8504H68.2996C69.6689 67.8504 70.8861 66.7854 70.8861 65.264V21.7508C70.8861 20.3815 69.6689 19.3165 68.2996 19.3165Z" fill="#FFF5F5"/>
<path d="M61.9188 25.8585H34.0764V36.0522H23.8828V71.6538C23.8828 73.0231 24.9478 74.2402 26.4693 74.2402H61.9188C63.2881 74.2402 64.5052 73.1752 64.5052 71.6538V28.2928C64.3531 26.9235 63.2881 25.8585 61.9188 25.8585Z" fill="#FFF5F5" stroke="#FF0004" stroke-width="1.52144" stroke-linecap="round" stroke-linejoin="round"/>
<path d="M30.2637 40.6168H56.5846H30.2637Z" fill="#FFF5F5"/>
<path d="M30.2637 40.6168H56.5846" stroke="#FF0004" stroke-width="1.52144" stroke-linecap="round" stroke-linejoin="round"/>
<path d="M30.2637 45.7893H56.5846H30.2637Z" fill="#FFF5F5"/>
<path d="M30.2637 45.7893H56.5846" stroke="#FF0004" stroke-width="1.52144" stroke-linecap="round" stroke-linejoin="round"/>
<path d="M30.2637 50.9625H56.5846H30.2637Z" fill="#FFF5F5"/>
<path d="M30.2637 50.9625H56.5846" stroke="#FF0004" stroke-width="1.52144" stroke-linecap="round" stroke-linejoin="round"/>
</svg>
